<?xml version="1.0" encoding="UTF-8"?>
<svg id="Camada_2" data-name="Camada 2" xmlns="http://www.w3.org/2000/svg" viewBox="0 0 992.12 470.47">
  <defs>
    <style>
      .cls-1 {
        fill: #fff;
      }

      .cls-2 {
        fill: #1c1c1c;
      }

      .cls-3 {
        fill: #1c1c1c;
      }

      .cls-4 {
        fill: #3a7bff;
      }

      .cls-5 {
        fill: none;
        stroke: #1d1d1b;
        stroke-linecap: round;
        stroke-miterlimit: 10;
        stroke-width: 10px;
      }
    </style>
  </defs>
  <g id="Camada_1-2" data-name="Camada 1">
    <rect class="cls-1" x="203.22" y="31.65" width="169.16" height="188.51"/>
    <path class="cls-2" d="M740.33,9.4c1.54-6.9,8.54-8.2,14.52-8.7,9.44-.8,29.62-1.07,38.78.02,16.19,1.91,15.92,30.06.56,34.44l.05,92.05c14.75-.67,28.13,7.77,30.86,22.69l.09,79.91c.65,3.94,5.46,2.94,7.83,6.37,3.38,4.9,3.38,30.75,2.22,37.17-1.4,7.74-7.58,10.95-15.17,10-.18,35.84-41,57.22-69.7,34.2-11-8.82-14.79-20.02-16.67-33.65l-21.29-.58c-2.85,57.62-83.78,58.06-85.89.02l-21.19-.07c-4.3,56.85-82.22,58.64-86.46,1.27-10.96-2.12-16.7-2.47-16.84-15.42l-4.54-1.27c.91,11.18-5.98,16.63-16.79,15.48-1.58,57.92-82.26,57.76-85.89-.02l-129.6.02c-.75,57.71-84.25,57.76-85.15,0-5.33.35-13.03-.33-14.91-6.38-1.2-3.87-1.25-35.11-.01-38.85,2.19-6.64,12.93-6.87,18.79-6.39-2.05-4.16-6.45-13.1-6.45-17.41v-29.03c-17.19.71-25.53,2.03-23.41-18.53l-1.94-1.93c-10.4-2.07-45.53,3.71-51.42-4.06-1.38-1.83-1.72-3.55-1.98-5.77-1.28-11.07-1.56-48.77.1-59.31.62-3.96,5.8-9.75,9.6-9.75h45.81c-2.71-20.2,5.07-22.04,23.23-20.65v-29.03c0-12.81,15.95-29.49,29.03-30.33l163.76.12c16.97,3.96,25.55,17.17,28.65,33.51l12.12-.07c-1.44-12.68,3.62-26.63,17-30.1,6.9-1.79,30.29-1.73,37.84-.88,12.23,1.38,20.51,10.3,21.34,22.53-3.9,61.48,5.02,129.02,0,189.78-.35,4.21-1.74,7-2.64,10.9,10.03.24,12.62,6.6,13.55,15.51h4.51c-1.11-9.03,1.37-13.41,10.12-15.71,1.2-57.66,1.88-115.41,1.57-173.25-.18-1.09-9.65-.21-11.41-8.11-1.52-6.82-2.55-29.52,6.11-32.05l169.47-.3c9.86,1.99,8.51,23.49,7.3,31.26-.92,5.84-5.84,8.95-11.54,8.46v70.97s19.35-1.29,19.35-1.29v-34.19c0-.32,3.41-4.66,3.93-5.09,6.02-4.9,30.95-4.83,36.76.52,1.21,1.11,4.47,7.35,4.47,8.43v30.32s12.9,0,12.9,0V34.29c-12.53-.28-13.42-15.58-11.34-24.89ZM433.6,27.84c-6.7,7.92-2.06,21.09-1.88,30.27,1.02,53.33-.82,106.78-.12,160.12l2,4.45h32.26s1.94-1.94,1.94-1.94V31.07c0-.42-2.65-2.36-3.23-3.23h-30.97ZM203.21,220.15h169.16s.01-188.5.01-188.5h-169.16s-.01,188.5-.01,188.5ZM548.41,52.33c-10.4,1.53-12.85,10.76-13.57,19.98-2.01,25.85-1.31,64.2.02,90.43.57,11.19.65,23.87,14.81,25.16,28.27,2.58,60.42-2.07,89.12-.03,8.79-1.04,12.85-9.23,13.57-17.4,2.87-32.46-2.25-69.08-.05-101.99-.63-6.84-4.58-13.39-11.24-15.85l-92.66-.3ZM394.25,58.81v163.87s18.06,0,18.06,0V58.81s-18.06,0-18.06,0ZM163.27,79.47h15.5s0-3.91,0-3.91h-15.5s0,3.91,0,3.91ZM163.27,91.07h15.5s-.16-4.37-.16-4.37l-1.96-1.91-13.37-.19v6.47ZM163.27,109.14c11.37.41,19.47,2.08,14.28-12.35l-14.28-.57v12.92ZM154.25,96.23h-44.52s-1.91,1.94-1.91,1.94l1.91,1.94h44.52s0-3.87,0-3.87ZM154.25,114.29v-10.32s-44.52,0-44.52,0l-1.73,2.13-.2,8.19h46.45ZM164.49,125.34l13.71-.64.57-10.41h-15.5s1.21,11.06,1.21,11.06ZM154.25,119.45h-44.52c-3.01,2.58-3.01,9.03,0,11.61h44.52s0-11.61,0-11.61ZM178.77,141.4l-.57-10.41-13.71-.64-1.21,11.06h15.5ZM109.73,143.97h44.52s0-7.74,0-7.74h-46.45c-.05,2.78-.67,5.97,1.94,7.74ZM164.49,155.02c2.85.73,12.23,1.53,13.71-.64l.57-7.83h-15.5s1.21,8.48,1.21,8.48ZM107.97,153.48l1.76,2.11h44.52s0-6.45,0-6.45h-46.45s.17,4.34.17,4.34ZM178.21,160.65l-14.94-1.2c-4.32,12.16,20.86,9.55,14.94,1.2ZM163.27,176.22h15.48s-.57-3.94-.57-3.94l-1.57-1.01-13.35-.2v5.15ZM799.41,283.33h-45.16c.33,30.79,45.79,31.7,45.16,0ZM692.31,283.33h-46.45c2.51,31.44,44.28,31.44,46.45,0ZM583.93,283.33h-45.16c-.01,31,45.65,31.42,45.16,0ZM461.35,283.33h-46.45c2.29,31.15,44.43,31.54,46.45,0ZM245.86,283.33h-46.45c2.23,31.47,44.19,31.54,46.45,0Z"/>
    <line class="cls-5" x1="5" y1="327.1" x2="987.12" y2="327.1"/>
    <path class="cls-4" d="M199.06,283.35c2.25,31.47,44.52,31.54,46.8,0h-46.8Z"/>
    <path class="cls-4" d="M645.52,283.35c2.53,31.44,44.61,31.44,46.8,0h-46.8Z"/>
    <path class="cls-4" d="M414.55,283.35c2.31,31.15,44.79,31.54,46.83,0h-46.83Z"/>
    <path class="cls-4" d="M753.91,283.35c.33,30.79,46.14,31.7,45.51,0h-45.51Z"/>
    <path class="cls-4" d="M538.42,283.35c-.01,31,46,31.42,45.51,0h-45.51Z"/>
    <path class="cls-4" d="M154.25,131.09v-11.61s-44.52,0-44.52,0c-3.01,2.58-3.01,9.03,0,11.61h44.52Z"/>
    <polygon class="cls-4" points="107.79 114.31 154.25 114.31 154.25 103.99 109.73 103.99 108 106.13 107.79 114.31"/>
    <path class="cls-4" d="M107.79,136.25c-.05,2.78-.67,5.97,1.94,7.74h44.52s0-7.74,0-7.74h-46.45Z"/>
    <polygon class="cls-4" points="107.79 149.15 107.97 153.5 109.73 155.6 154.25 155.6 154.25 149.15 107.79 149.15"/>
    <path class="cls-4" d="M163.27,96.24v12.92c11.37.41,19.47,2.08,14.28-12.35l-14.28-.57Z"/>
    <polygon class="cls-4" points="154.25 100.12 154.25 96.25 109.73 96.25 107.82 98.19 109.73 100.12 154.25 100.12"/>
    <polygon class="cls-4" points="163.27 114.31 164.49 125.36 178.2 124.72 178.77 114.31 163.27 114.31"/>
    <polygon class="cls-4" points="163.27 141.42 178.77 141.42 178.2 131.01 164.49 130.36 163.27 141.42"/>
    <path class="cls-4" d="M163.27,146.57l1.21,8.48c2.85.73,12.23,1.53,13.71-.64l.57-7.83h-15.5Z"/>
    <path class="cls-4" d="M163.27,159.48c-4.32,12.16,20.86,9.55,14.94,1.2l-14.94-1.2Z"/>
    <polygon class="cls-4" points="163.27 84.63 163.27 91.1 178.77 91.08 178.61 86.73 176.64 84.82 163.27 84.63"/>
    <polygon class="cls-4" points="163.27 171.09 163.27 176.24 178.76 176.24 178.19 172.31 176.62 171.29 163.27 171.09"/>
    <rect class="cls-4" x="162.93" y="75.58" width="16.23" height="3.91"/>
    <rect class="cls-4" x="530.17" y="52.35" width="124.16" height="138.09" rx="9.94" ry="9.94" transform="translate(1184.5 242.79) rotate(-180)"/>
    <rect class="cls-4" x="429.65" y="24.41" width="40.08" height="201.08" rx="7.15" ry="7.15" transform="translate(899.37 249.9) rotate(-180)"/>
    <rect class="cls-4" x="201.64" y="27.86" width="172.31" height="194.84" rx="7.15" ry="7.15" transform="translate(575.59 250.56) rotate(-180)"/>
    <rect class="cls-4" x="393.9" y="55.78" width="18.41" height="166.92" transform="translate(806.22 278.48) rotate(-180)"/>
    <rect class="cls-4" x="695.73" y="147.28" width="108.17" height="77.2" rx="9.94" ry="9.94" transform="translate(1499.63 371.77) rotate(-180)"/>
    <g>
      <path class="cls-3" d="M37.5,429.06l8.87-58.8h18.1v82.82h-12.31v-59.39l-8.99,59.39h-12.3l-9.7-58.57v58.57h-11.36v-82.82h18.1l9.58,58.8Z"/>
      <path class="cls-3" d="M94.41,352.74l-12.07,13.13h-8.76l8.05-13.13h12.78ZM73.94,370.25h13.02v82.82h-13.02v-82.82Z"/>
      <path class="cls-3" d="M96.41,370.25h20.59c13.01,0,19.4,7.22,19.4,20.47v41.88c0,13.25-6.39,20.47-19.4,20.47h-20.59v-82.82ZM109.43,382.08v59.16h7.34c4.14,0,6.63-2.13,6.63-8.04v-43.07c0-5.92-2.48-8.05-6.63-8.05h-7.34Z"/>
      <path class="cls-3" d="M144.68,370.25h13.01v82.82h-13.01v-82.82Z"/>
      <path class="cls-3" d="M209.28,453.07h-13.13l-2.25-15.03h-15.97l-2.25,15.03h-11.95l13.25-82.82h19.05l13.25,82.82ZM179.58,426.81h12.54l-6.27-41.88-6.27,41.88Z"/>
      <path class="cls-3" d="M232.82,369.31c12.66,0,19.17,7.57,19.17,20.82v2.6h-12.3v-3.43c0-5.92-2.37-8.16-6.51-8.16s-6.51,2.25-6.51,8.16c0,17.04,25.44,20.23,25.44,43.9,0,13.25-6.63,20.82-19.4,20.82s-19.4-7.57-19.4-20.82v-5.09h12.31v5.92c0,5.92,2.6,8.04,6.74,8.04s6.74-2.13,6.74-8.04c0-17.04-25.44-20.23-25.44-43.9,0-13.25,6.51-20.82,19.17-20.82Z"/>
      <path class="cls-3" d="M290.91,405.16h17.87v11.83h-17.87v24.25h22.48v11.83h-35.49v-82.82h35.49v11.83h-22.48v23.07Z"/>
      <path class="cls-3" d="M339.77,370.25h13.02v82.82h-13.02v-82.82Z"/>
      <path class="cls-3" d="M389.82,429.06l8.87-58.8h18.1v82.82h-12.31v-59.39l-8.99,59.39h-12.3l-9.7-58.57v58.57h-11.36v-82.82h18.1l9.58,58.8Z"/>
      <path class="cls-3" d="M468.37,453.07h-13.13l-2.25-15.03h-15.97l-2.25,15.03h-11.95l13.25-82.82h19.05l13.25,82.82ZM438.68,426.81h12.54l-6.27-41.88-6.27,41.88Z"/>
      <path class="cls-3" d="M493.81,406.93h18.22v26.27c0,13.25-6.63,20.82-19.4,20.82s-19.4-7.57-19.4-20.82v-43.07c0-13.25,6.63-20.82,19.4-20.82s19.4,7.57,19.4,20.82v8.05h-12.3v-8.87c0-5.92-2.6-8.16-6.74-8.16s-6.74,2.25-6.74,8.16v44.72c0,5.92,2.6,8.04,6.74,8.04s6.74-2.13,6.74-8.04v-15.26h-5.92v-11.83Z"/>
      <path class="cls-3" d="M533.44,405.16h17.87v11.83h-17.87v24.25h22.48v11.83h-35.5v-82.82h35.5v11.83h-22.48v23.07Z"/>
      <path class="cls-3" d="M575.56,393.09v59.99h-11.71v-82.82h16.33l13.37,49.57v-49.57h11.6v82.82h-13.37l-16.21-59.99Z"/>
      <path class="cls-3" d="M631.99,369.31c12.66,0,19.17,7.57,19.17,20.82v2.6h-12.31v-3.43c0-5.92-2.37-8.16-6.51-8.16s-6.51,2.25-6.51,8.16c0,17.04,25.44,20.23,25.44,43.9,0,13.25-6.63,20.82-19.4,20.82s-19.4-7.57-19.4-20.82v-5.09h12.3v5.92c0,5.92,2.6,8.04,6.74,8.04s6.74-2.13,6.74-8.04c0-17.04-25.44-20.23-25.44-43.9,0-13.25,6.51-20.82,19.17-20.82Z"/>
      <path class="cls-3" d="M690.08,405.16h17.87v11.83h-17.87v24.25h22.48v11.83h-35.5v-82.82h35.5v11.83h-22.48v23.07Z"/>
      <path class="cls-3" d="M748.17,429.06l8.87-58.8h18.1v82.82h-12.3v-59.39l-8.99,59.39h-12.3l-9.7-58.57v58.57h-11.36v-82.82h18.1l9.58,58.8Z"/>
      <path class="cls-3" d="M845.07,453.07h-13.13l-2.25-15.03h-15.97l-2.25,15.03h-11.95l13.25-82.82h19.05l13.25,82.82ZM815.37,426.81h12.54l-6.27-41.88-6.27,41.88Z"/>
      <path class="cls-3" d="M888.84,422.19v11c0,12.3-5.8,19.76-16.8,20.71v3.79c5.8,0,8.75,1.42,8.75,5.56,0,6.39-4.97,7.22-11.95,7.22-6.51,0-11.36-1.42-11.36-6.86v-1.18h8.75v.95c0,1.77,1.3,2.37,2.6,2.37,2.01,0,2.96-.83,2.96-2.84,0-2.25-1.42-3.08-4.26-3.08h-1.18v-6.03c-10.77-1.06-16.33-8.4-16.33-20.59v-43.07c0-13.25,6.63-20.82,19.4-20.82s19.4,7.57,19.4,20.82v8.05h-12.3v-8.87c0-5.92-2.6-8.16-6.74-8.16s-6.74,2.25-6.74,8.16v44.72c0,5.92,2.6,8.04,6.74,8.04s6.74-2.13,6.74-8.04v-11.83h12.3Z"/>
      <path class="cls-3" d="M938.89,453.07h-13.13l-2.25-15.03h-15.97l-2.25,15.03h-11.95l13.25-82.82h19.05l13.25,82.82ZM925.87,353.45l6.27,4.38c-2.25,6.03-5.92,8.05-10.06,8.05-4.97,0-7.1-2.96-10.65-2.96-2.13,0-3.67.47-5.09,3.43l-6.27-4.38c2.25-6.03,5.92-8.05,10.06-8.05,4.97,0,7.1,2.96,10.65,2.96,2.13,0,3.67-.47,5.09-3.43ZM909.19,426.81h12.54l-6.27-41.88-6.27,41.88Z"/>
      <path class="cls-3" d="M943.73,390.13c0-13.25,6.98-20.82,19.76-20.82s19.76,7.57,19.76,20.82v43.07c0,13.25-6.98,20.82-19.76,20.82s-19.76-7.57-19.76-20.82v-43.07ZM956.75,434.03c0,5.92,2.6,8.16,6.74,8.16s6.74-2.25,6.74-8.16v-44.72c0-5.92-2.6-8.16-6.74-8.16s-6.74,2.25-6.74,8.16v44.72Z"/>
    </g>
  </g>
</svg>